<svg xmlns="http://www.w3.org/2000/svg" xmlns:xlink="http://www.w3.org/1999/xlink" width="480" zoomAndPan="magnify" viewBox="0 0 360 359.999987" height="480" preserveAspectRatio="xMidYMid meet" version="1.0"><defs><clipPath id="341e28881d"><path d="M 0 0 L 357.75 0 L 357.75 360 L 0 360 Z M 0 0 " clip-rule="nonzero"/></clipPath></defs><g clip-path="url(#341e28881d)"><path fill="#000000" d="M 305.589844 52.457031 C 271.964844 18.769531 227.25 0.183594 179.605469 0.183594 C 81.429688 0.183594 1.527344 80.132812 1.492188 178.417969 C 1.492188 209.828125 9.6875 240.507812 25.273438 267.523438 L 0 359.886719 L 94.421875 335.09375 C 120.441406 349.304688 149.730469 356.773438 179.53125 356.792969 L 179.605469 356.792969 C 277.757812 356.792969 357.679688 276.828125 357.695312 178.558594 C 357.695312 130.929688 339.214844 86.160156 305.570312 52.457031 Z M 179.605469 326.699219 L 179.550781 326.699219 C 153 326.699219 126.925781 319.546875 104.195312 306.050781 L 98.792969 302.828125 L 42.757812 317.539062 L 57.707031 262.863281 L 54.1875 257.261719 C 39.363281 233.679688 31.546875 206.414062 31.5625 178.417969 C 31.597656 96.742188 98.011719 30.277344 179.65625 30.277344 C 219.199219 30.277344 256.359375 45.714844 284.316406 73.730469 C 312.269531 101.722656 327.644531 138.949219 327.625 178.542969 C 327.589844 260.234375 261.175781 326.699219 179.585938 326.699219 Z M 260.804688 215.75 C 256.359375 213.527344 234.484375 202.75 230.394531 201.273438 C 226.308594 199.777344 223.359375 199.046875 220.390625 203.496094 C 217.421875 207.960938 208.890625 217.992188 206.296875 220.960938 C 203.703125 223.929688 201.109375 224.304688 196.648438 222.0625 C 192.203125 219.839844 177.863281 215.128906 160.855469 199.957031 C 147.632812 188.144531 138.691406 173.5625 136.097656 169.097656 C 133.503906 164.632812 135.832031 162.230469 138.054688 160.007812 C 140.042969 158.015625 142.496094 154.796875 144.734375 152.199219 C 146.957031 149.605469 147.703125 147.734375 149.179688 144.765625 C 150.671875 141.796875 149.925781 139.199219 148.804688 136.957031 C 147.683594 134.734375 138.800781 112.804688 135.085938 103.894531 C 131.476562 95.214844 127.796875 96.386719 125.078125 96.246094 C 122.484375 96.121094 119.515625 96.085938 116.546875 96.085938 C 113.582031 96.085938 108.765625 97.1875 104.675781 101.652344 C 100.589844 106.117188 89.109375 116.894531 89.109375 138.808594 C 89.109375 160.71875 105.050781 181.902344 107.289062 184.890625 C 109.511719 187.863281 138.675781 232.84375 183.316406 252.140625 C 193.929688 256.730469 202.226562 259.46875 208.695312 261.53125 C 219.359375 264.929688 229.0625 264.449219 236.722656 263.292969 C 245.269531 262.011719 263.042969 252.511719 266.757812 242.109375 C 270.472656 231.703125 270.472656 222.792969 269.351562 220.925781 C 268.234375 219.058594 265.265625 217.957031 260.820312 215.714844 Z M 260.804688 215.75 " fill-opacity="1" fill-rule="evenodd"/></g></svg>