<svg xmlns="http://www.w3.org/2000/svg" xmlns:xlink="http://www.w3.org/1999/xlink" width="1080" zoomAndPan="magnify" viewBox="0 0 810 1439.999935" height="1920" preserveAspectRatio="xMidYMid meet" version="1.0"><defs><clipPath id="98045a8e66"><path d="M 217.050781 1 L 517.800781 1 L 517.800781 1439 L 217.050781 1439 Z M 217.050781 1 " clip-rule="nonzero"/></clipPath></defs><g clip-path="url(#98045a8e66)"><path fill="#050505" d="M 436.3125 562.203125 L 436.003906 561.296875 L 436.351562 560.492188 L 463.339844 498.707031 L 409.082031 445.605469 L 385.375 405.089844 L 407.367188 328.289062 L 394.476562 277.472656 L 517.53125 223.046875 L 401.082031 1.628906 L 310.152344 1.628906 L 342.371094 128.640625 L 324.3125 135.988281 L 290.613281 186.113281 L 343.917969 254.832031 L 297.199219 336.496094 L 309.925781 343.941406 L 238.65625 451.820312 L 342.265625 507.402344 L 365.742188 543.152344 L 343.710938 601.480469 L 391.03125 640.792969 L 316.390625 710.808594 L 349.824219 800.460938 L 293.269531 913.929688 L 350.519531 945.078125 L 355.03125 964.15625 L 267.597656 1024.609375 L 289.429688 1083.867188 L 217.011719 1163.238281 L 342.339844 1168.449219 L 316.734375 1223.9375 L 363.828125 1241.421875 L 383.496094 1273.4375 L 376.082031 1292.804688 L 375.957031 1293.335938 L 363.734375 1345.546875 L 385.808594 1385.863281 L 393.949219 1438.367188 L 393.980469 1386.332031 L 373.695312 1342.363281 L 384.648438 1305.609375 L 402.230469 1270.949219 L 370.863281 1211.507812 L 353.171875 1201.992188 L 391.042969 1128.847656 L 311.210938 1121.5 L 329.679688 1104.269531 L 312.519531 1055.175781 L 370.078125 1021.121094 L 395.867188 986.519531 L 376.335938 883.847656 L 368.773438 878.433594 L 412.792969 803.230469 L 390.566406 753.886719 L 421.914062 727.359375 L 487.589844 709.941406 L 436.3125 562.203125 " fill-opacity="1" fill-rule="nonzero"/></g></svg>